<?xml version="1.0" standalone="no"?>
<!DOCTYPE svg PUBLIC "-//W3C//DTD SVG 20010904//EN"
 "http://www.w3.org/TR/2001/REC-SVG-20010904/DTD/svg10.dtd">
<svg version="1.0" xmlns="http://www.w3.org/2000/svg"
 width="280.000000pt" height="280.000000pt" viewBox="0 0 280.000000 280.000000"
 preserveAspectRatio="xMidYMid meet">
<metadata>
Created by potrace 1.11, written by Peter Selinger 2001-2013
</metadata>
<g transform="translate(0.000000,280.000000) scale(0.100000,-0.100000)"
fill="#000000" stroke="none">
<path d="M860 2730 c-239 -32 -444 -59 -456 -61 -20 -4 -17 -32 156 -1331 97
-730 179 -1330 182 -1334 10 -9 980 122 1070 145 109 28 220 76 304 133 120
80 198 184 251 333 27 77 28 87 28 270 -1 218 -10 267 -78 405 -51 105 -143
202 -233 247 l-60 29 47 53 c100 111 144 242 143 426 -3 335 -162 590 -433
692 -190 72 -337 71 -921 -7z m619 -494 c79 -41 116 -133 116 -288 0 -102 -1
-108 -30 -149 -46 -65 -100 -87 -273 -109 -80 -11 -147 -18 -148 -17 -6 8 -73
541 -69 546 4 3 61 13 128 23 135 19 231 17 276 -6z m157 -1015 c76 -35 124
-128 142 -273 19 -149 -25 -249 -128 -291 -33 -14 -358 -63 -364 -55 -6 6 -79
588 -75 592 7 6 291 44 339 45 25 0 64 -8 86 -18z"/>
</g>
</svg>
