<!-- <svg id="Layer_1" data-name="Layer 1" xmlns="http://www.w3.org/2000/svg" viewBox="0 0 67.3 93.14"><defs><style>.cls-1{fill:#ffcdcd;stroke:#ffb9b9;stroke-miterlimit:10;stroke-width:3px;}</style></defs><title>Logo</title><path class="cls-1" d="M13.09,91.45,1.68,5.46,28.46,2Q42,.19,49.88,5.26t9.38,16.65a21.17,21.17,0,0,1-1.42,11.66,17.2,17.2,0,0,1-7.05,8A15.33,15.33,0,0,1,60.65,47,22.88,22.88,0,0,1,65.44,58.9Q67.1,71.43,61,78.7t-19.23,9ZM24,39.14,33.06,38Q43.35,36.62,42,26c-.52-3.89-1.68-6.59-3.49-8.07S34,16,30.38,16.43L21.1,17.64Zm1.68,12.64,3.05,23L39.86,73.3q4.71-.61,6.76-3.83c1.37-2.14,1.82-5,1.35-8.53Q46.44,49.36,38,50.17Z"/></svg> -->

<svg id="Layer_1" data-name="Layer 1" xmlns="http://www.w3.org/2000/svg" viewBox="0 0 67.3 93.14"><defs><style>.cls-1{fill:#ffffff;stroke:#ffffff;stroke-miterlimit:10;stroke-width:3px;}</style></defs><title>Logo</title><path class="cls-1" d="M13.09,91.45,1.68,5.46,28.46,2Q42,.19,49.88,5.26t9.38,16.65a21.17,21.17,0,0,1-1.42,11.66,17.2,17.2,0,0,1-7.05,8A15.33,15.33,0,0,1,60.65,47,22.88,22.88,0,0,1,65.44,58.9Q67.1,71.43,61,78.7t-19.23,9ZM24,39.14,33.06,38Q43.35,36.62,42,26c-.52-3.89-1.68-6.59-3.49-8.07S34,16,30.38,16.43L21.1,17.64Zm1.68,12.64,3.05,23L39.86,73.3q4.71-.61,6.76-3.83c1.37-2.14,1.82-5,1.35-8.53Q46.44,49.36,38,50.17Z"/></svg>
