<svg id="Layer_1" data-name="Layer 1" xmlns="http://www.w3.org/2000/svg" viewBox="0 0 150 150"><defs><style>.cls-1{fill:none;stroke:#000;stroke-miterlimit:10;stroke-width:5px;}</style></defs><title>Personal Logo</title><path class="cls-1" d="M125.92,111.63a20,20,0,0,0-5.12-6.37,22.55,22.55,0,0,0-7-3.9A38,38,0,0,0,106,99.55v-.49a26.19,26.19,0,0,0,7.16-2.43,22,22,0,0,0,5.78-4.26,18.67,18.67,0,0,0,5.23-13.12,18.49,18.49,0,0,0-2.53-10.15A17.35,17.35,0,0,0,114.9,63a31,31,0,0,0-9.62-3,71.63,71.63,0,0,0-11.18-.85H92.51a16.42,16.42,0,0,0-1.18-3,20,20,0,0,0-5.12-6.37,22.55,22.55,0,0,0-7-3.9A38,38,0,0,0,71.41,44v-.5a25.54,25.54,0,0,0,7.16-2.43,21.78,21.78,0,0,0,5.78-4.25,18.68,18.68,0,0,0,5.23-13.13,18.45,18.45,0,0,0-2.53-10.14,17.2,17.2,0,0,0-6.74-6.14,31,31,0,0,0-9.62-3,71.63,71.63,0,0,0-11.18-.85q-5.31,0-9.39.36c-2.73.25-5.61.37-8.66.37H22.09V8.86A28,28,0,0,0,26.9,11,40.43,40.43,0,0,0,32,12.4V81.19a19.68,19.68,0,0,0-5,1.21,31.61,31.61,0,0,0-4.87,2.31v4.62H36.41c1.27,0,2.86,0,4.74.12L47,89.7l6,.24c2,.07,3.84.11,5.53.11a60.07,60.07,0,0,0,8-.51v47.2a20.11,20.11,0,0,0-5,1.21,31.61,31.61,0,0,0-4.87,2.31v4.62H71c1.28,0,2.87,0,4.75.12l5.84.25,6,.24c2,.07,3.84.12,5.53.12a59.51,59.51,0,0,0,13-1.4,35.58,35.58,0,0,0,11.13-4.43A23.58,23.58,0,0,0,125,132a21.46,21.46,0,0,0,2.88-11.31A19.52,19.52,0,0,0,125.92,111.63ZM49.28,11.9c1-.15,2.2-.28,3.49-.36s2.81-.12,4.57-.12A14.69,14.69,0,0,1,67.57,15q4,3.57,4,11.23a15.67,15.67,0,0,1-2.88,9.31,17.28,17.28,0,0,1-7.58,6c-1.21.15-2.49.3-3.86.41s-2.72.19-4.09.19H49.28Zm7.4,47.9v4.62a28,28,0,0,0,4.81,2.12A40.43,40.43,0,0,0,66.54,68V80.42a17.8,17.8,0,0,1-8.12,1.74,45.31,45.31,0,0,1-5.6-.25c-1.24-.16-2.42-.36-3.54-.61V50.07h6.37a40.88,40.88,0,0,1,7.58.67,15.37,15.37,0,0,1,6,2.43,12.11,12.11,0,0,1,4,4.74,11.39,11.39,0,0,1,.71,1.89ZM83.87,83.43a23.58,23.58,0,0,0,6.56-7A20.7,20.7,0,0,0,93.25,67a14.34,14.34,0,0,1,8.91,3.55q4,3.59,4,11.23a15.72,15.72,0,0,1-2.88,9.31,17.21,17.21,0,0,1-7.58,6c-1.21.16-2.49.3-3.86.42s-2.72.19-4.09.19H83.87Zm21,49.72q-4.33,4.56-11.91,4.56a45.31,45.31,0,0,1-5.6-.25c-1.24-.16-2.42-.35-3.54-.61V105.62h6.37a40.88,40.88,0,0,1,7.58.67,15.52,15.52,0,0,1,6,2.43,12.11,12.11,0,0,1,4,4.74,17.49,17.49,0,0,1,1.44,7.6Q109.25,128.59,104.92,133.15Z"/></svg>